<?xml version="1.0" encoding="utf-8"?>
<!-- Generator: Adobe Illustrator 21.1.0, SVG Export Plug-In . SVG Version: 6.00 Build 0)  -->
<svg version="1.1" id="Layer_1" xmlns="http://www.w3.org/2000/svg" xmlns:xlink="http://www.w3.org/1999/xlink" x="0px" y="0px"
	 viewBox="0 0 590 590" style="enable-background:new 0 0 590 590;" xml:space="preserve">
<style type="text/css">
	.st0{fill:none;}
	.st1{fill:#3062FF;}
	.st2{fill:url(#path-2_3_);fill-opacity:0.1;}
	.st3{fill:url(#path-2_6_);fill-opacity:0.5;}
</style>
<pattern  x="166.5" y="446" width="258" height="258" patternUnits="userSpaceOnUse" id="pattern-3" viewBox="1285 -1669 258 258" style="overflow:visible;">
	<g>
		<rect x="1285" y="-1669" class="st0" width="258" height="258"/>
		<g>
			
				<image style="overflow:visible;enable-background:new    ;" width="258" height="258" id="image-4_1_" xlink:href="1E04324C3FA760BD.png"  transform="matrix(1 0 0 -1 0 0)">
			</image>
		</g>
	</g>
</pattern>
<title>california</title>
<desc>Created with Sketch.</desc>
<g id="Local-News_x2014_All-States" transform="translate(-1543.000000, -1669.000000)">
	<g id="california">
		<g>
			<path id="path-2" class="st1" d="M1690.2,1669l-16.9,0.2h-29.1l-14.1,0.1l-14.9,0.4l-19-0.2l0.1,0.5l0.2,0.4v1.1l-0.2,0.9
				l0.3,0.3v0.6v1.1l-0.2,2l-0.4,2.2v0.4l-0.2,0.4l-0.3,0.8l-0.5,1.4l-0.5,1.1l-0.3,0.1v0.3l3.3,2.7l0.5-0.4l0.6,0.4l0.5,0.7
				l0.5,1.2h0.1l2.1,6.6l0.7,3.3h0.3v0.8l0.9,4.3l-0.1,1.1l0.1,0.5l-0.3,2.7l-0.1,1.3l-0.8,4.3l-0.1,1.1l-0.2,0.5l-0.8,3.9l-0.2,0.4
				l-0.4,1.3l-0.6,1.6l-0.5,1.4h-0.6l-0.3,0.3l0.1,0.3v0.1v0.4l0.1,0.2v0.5l0.1,1.5v0.1v0.2l0.1,1.1l0.1,0.3v0.3h0.2l0.5,0.1
				l0.5,0.4l0.3,0.4v0.2l0.5,0.9l-0.1,0.6l-0.3,1.6l-0.9,3.9l-0.8,2.3l-0.2,0.7l-0.5,0.9l-0.5,1.1l-1.2,2.4l-1.1,1.8l-0.4,0.8
				l-0.8,1.7l-1.2,2.1l-2.7,5.2v0.2l-0.8,2l-2,5.7v0.1l-0.5,1.8l-0.1,0.2l-0.4,1.3v0l0.2,0.2v0.6l0.2,0.4l0.2,0.3l0.2,0.4l0.6,0.5
				l0.3,0.3l0.4,1.2l0.1,2l0.2,0.5l0.3,0.3l0.2,0.9v0.2l-0.7,3.5l0.3,0.3l1.1,0.8l0.3,0.2l0.1,0.1l10.5,8.2l0.3,0.5l0.8,1.1l0.4,0.8
				v2.3l0.2,0.2l0.4,0.2l0.1-0.1h0.4l0.4,0.2l0.5,0.4l0.6,0.8l0.8,0.8l0.3,0.3l0.5,0.8l0.8,0.6l0.2,0.6l2.2,2.7l0.7,1.8v0.5l0.3,0.6
				l0.3,0.2v0.1l2.4,1.5l0.3,1.1v0.5l0.3,0.8l0.2,1.2v0.9l0.1,0.7l0.4,1.1h-0.2l0.1,0.5l0.2,0.3l0.8,0.5l0.2,0.7l0.5,0.5v0.3
				l0.1,0.1v1.3l0.1,0.3v1v0.3l0.1,0.7l-0.1,0.1l0.2,0.3v0.7l-0.2,0.1v0.3v0.4v0.3l0.5,0.5v0.3l0.3,0.4v0.2l0.3,0.6v0.4l-0.5,1.8
				l-0.3,1l-0.5,1l-0.2,0.1l-0.2,0.4v0.6l-0.1,0.3l-0.2,0.8l-0.2,1.5l0.3,0.2l-0.3,0.1v0.3v0.2v0.5l-0.3,2.3v0.3l0.4,0.4l-0.4-0.1
				l0.1,0.3l-0.2,0.4v0.6l0.5,0.5v0.3l0.4,0.6l0.4,0.4v0.3h-0.3l0.3,0.6l0.2,0.1v0.6v0.1l0.2,1.2v0.1l0.1,0.6v0.4h0.2l0.3,1
				l-0.2,0.3h0.1l0.1,0.5l0.3,0.4h-0.4l0.3,0.8l-0.1,0.2v0.3l0.5,0.1l0.3,0.8l0.9,1l0.5,1.5l0.4,0.2v0.4v0.3l0.2,0.3l0.1,0.6
				l0.3,0.4l-0.1,0.2l0.9,3l-0.1,0.6l0.1,0.3l-0.1,0.7v0.3l-0.3,1l-0.6,1.5l-0.8,3.8h0l0.5,0.2v0.2l0.4,0.6l0.7,0.5l0.4,0.7l1,0.6
				l0.3,0.4l0.1,0.6l0.2,0.6l0.5,0.1l0.5,0.5l0.1,0.3h0.3l0.7,0.5l0.3,0.5l0.9,0.8h0.1l0.4,0.3l0.5,0.5v0.1l0.3,0.2l0.3,0.1l0.4,0.4
				v0.1l0.5,0.4l3.5,3.2l0.5,0.8l0.2,0.2h0.2l0.5,0.8v0.2l0.3,0.4l0.4,0.2l0.1,0.4l0.5,0.6l-0.1,0.1l1,1.4l0.3,0.4l0.2,0.2l0.2,0.4
				l0.4,0.1v0.4l0.3,0.4l0.3,0.3h0.4l0.3,0.4l0.2,0.4v0.6l0.5,0.5h0.2v0.2l0.6,0.3l0.2,0.4l0.4,0.4l0.9,0.4v0.3l0.3-0.1l0.3,0.2v0.3
				l0.9,0.9l0.2-0.1l0.5,0.2l0.2,0.4l0.5,0.3h0.3l0.6,0.3l0.2,0.2l0.6,0.3l0.9,0.7l0.8,0.1l0.8,0.5v0.1l0.4,0.2l0.5,0.3l1.1,2.1
				l0.2,0.5l0.5,0.9l0.3,0.1l0.2,0.7l0.1,0.3l0.5,0.8v1.6l-0.2,0.5v0.5l1.1,0.4l0.5-0.2l0.7,0.2l1,0.8h0.1v0.1l0.2,0.3l0.1,0.4
				l0.3,0.2l0.1,0.4l0.4,0.3l0.4,1v0.5l-0.1,0.3v0.4l-0.3,0.2l-0.4-0.5l-0.3-0.2l0.3,0.8l0.3,0.4v0.4l0.6,0.8l0.1,1l0.2,0.4l0.3,0.1
				l0.3,0.9v0.4v0.2l-0.1,0.4l-0.1,0.6l-0.4,1.6l-1.6,4.4l-0.9,2.4l1.9-1l0.8-0.5l0.8-0.2l0.8,0.2h0.9l1.1,0.2l1.2,0.5l1.8,1.3v0.1
				l0.5,0.6l0.6,0.5l0.1,0.3l2.5,2.7l0.3,0.2l0.2,0.4l1.4,1.5h0.1l0.4-0.4l0.7-0.3l1,0.1l0.8,0.4l0.6,0.7l0.6,0.5h0.1l0.6,0.2l1,1.1
				v-0.2l0.3,0.3l0.6,0.3l0.1,0.3l0.5,0.7l0.6,0.4l0.1,0.2l3-0.4v-0.2l-0.3-0.5l-0.1-0.4v-0.5l-0.8-0.4l-0.3-0.5l0.2-0.2l-0.2-1h0.6
				l0.3,0.3l0.4,0.2l0.1,0.3l-0.1,0.4l0.3,0.4l0.5,0.4l-0.2-0.5h0.6l0.3-0.5l0.3-0.1l-2-1.5l-0.1-0.7l-0.2-0.2h-0.4l-0.4-0.4
				l-0.1-0.9l0.8,0.4l0.2-0.2l-0.4-1.8v-0.2l1.1-0.5v-0.2l0.3-0.2l0.1,0.1l0.8-0.4l-1.4-1h-0.1l-0.1-0.2l-0.4-0.3h-0.2l-0.1-0.3
				v-0.3v-0.5l0.1-0.3l0.3-4.5l0.4-0.2h0.2l3.9-1.8h0.3l1.6,0.6l0.8,0.4l1.4,0.9l0.6,0.4h0.2l0.3,0.4l0.7,0.9l0.3,0.8l0.4,0.5
				l0.3,0.5v0.4l-0.4,0.3l-0.2,0.2v0.4l-0.3,0.5h-0.3l-0.2,0.4l-0.3,0.3h-0.7l-0.8,0.6l-1.1-0.4h-0.3l-0.2-0.2v0.9l0.2,0.4l-0.2,0.5
				v0.3h-0.1l-0.6,0.3l-1,0.2v0.2l0.3,0.4l-0.3,0.3l-0.3-0.1l-0.2-0.4l-0.8-0.1v0.3l0.5,1h0.1l0.1,0.4l0.3,0.4h0.3l0.5,0.4l0.2,0.3
				l-0.1,0.7l1.2,0.2l0.3-0.2l0.8,0.1l0.5-0.1l0.5,0.2l-0.1,0.4l0.5,0.1l0.3,0.3h-0.3l0.4,2l0.3,0.3v0.5v0.4l0.1,0.7l-1.7,2.4v0.2
				l0.3,0.4l0.4,0.1l0.1,0.2l0.5,0.1v0.2l0.8,0.2v0.3h0.3l0.2-0.3l0.4,0.4l1.4,0.6v0.1l-0.8,0.4v0.3l0.3,0.3l2.1,1.7v-0.2l0.4-0.1
				l0.1,0.4l0.4,0.6l0.3,0.3h0.1l0.1,0.3l0.6,0.5v0.2l0.3,0.4l0.4,1.6v0.9l1.4,4.1h0.1l0.8,2v1.3v0.4h0.6l0.2-0.1l0.5-0.1l1.3,0.4
				l0.7,2h-0.2l0.2,0.1v0.4l-0.4,0.4l-0.6,0.1l-0.5-0.2l-1-0.1l-0.6-0.6h-0.4l-0.3-0.2l-0.1-0.2l-2.1-2l-0.9-0.7l-0.1-0.2l-0.3-0.1
				l-0.6-0.5v-0.1l-1.6-1.5l-0.6-0.4l-0.3-0.4l-0.4-0.4l-0.2-0.1l-0.5,0.2l-0.5-0.3h-1.1l-0.5-0.6l-2.1-0.5l-0.5-0.6l-0.4-0.2
				l0.3-0.5h0.2l0.3,0.2l-0.3-1.1l-0.5-0.3l-0.3-0.3h-0.2l-0.1-0.3h0.6l0.1-0.6l-0.3-1.3l-0.3-0.1l-0.3-1.8l1.6-1.2l-0.9-0.2v-0.2
				l0.4-0.2l-0.4-0.5l-0.2-0.4v-0.4l-0.1-1.1l-0.7-1.6l-0.1-0.2l-5.6,1.6l0.5,4.6l0.3,1.3l0.1,2.6v1.3v0.7l-0.9,3.6v0.5l-0.1,0.3
				v0.3v0.4l2.5,2v0.1l0.4,0.2l0.4,0.8l0.3,1.2v0.5l2.2,5.7v1.4l-0.5,4.4l-0.3,1v0.2l0.3,1.1l0.3,0.4v0.2l0.4,1.4l0.2,0.7l0.5-0.1
				l0.3,0.1l0.6,0.5l0.3,0.5v0.5v0.4l0.4,0.3l0.4,0.1l0.3,0.5v1v0.2h0.3l0.3,0.1l0.6-0.2l0.4,0.1l0.6,0.5l0.5,0.4l0.4,0.8l0.7,1.1
				l0.4,0.8l0.4,0.4l0.8,0.9l0.2,0.6l0.1,0.2h0.2v0.2l0.3,0.1v0.2l5,3.7l0.2,0.1l3.9,0.1l0.1-0.4l0.5-0.1l1,0.3h0.5l0.5,0.3l1-1.1
				l0.6-0.4h0.4l1.1,0.5l0.6,0.4l0.7,0.7l0.5,0.7l0.3,0.4l1.7,3.2l0.4,0.9l0.4,0.8l0.6,1.5l0.3,0.7l0.2,0.6l-1.3,7.5l-0.2,0.4
				l-0.4,1.2l-0.4,0.7l-0.5,1l-0.2,0.3l-0.1,0.3l0.4,0.5l-0.4,0.5l-0.5,0.4l-0.4,0.1h-0.5l-1.2-1.3l-0.3-0.2l-0.1-0.2l-0.3-0.3
				l-2.1,4.2l0.9,0.3l0.1-0.2h0.3l0.4,0.3l0.1,0.2v0.6l-0.2,0.1l0.2,0.4l0.2,0.8l-0.2,0.1h-0.4v0.2h-0.2l-0.1,0.8h0.2l-0.1,0.4h0.2
				l-0.5,0.5l0.4,0.5v0.5l0.4,0.3l0.2,0.8h-0.2l0.2,0.5l0.3,0.6v0.3l0.2,0.2v0.3l0.6,1.7v2.7l0.4,0.6v0.4l-0.2,0.3l0.1,0.6l-0.3,0.6
				l0.1,0.2l0.4,0.1l0.6,0.9l0.5,0.3v0.2l0.6,0.2l0.6,1.1l0.1,0.6l0.5,0.5h0.2l0.4,0.4l0.3,0.1l0.5-0.1l0.5,0.4h0.3l0.6,0.4l0.6,0.6
				h0.3l1.3,0.8l0.3,0.2l1.2,1.5l0.2,0.2l0.5,0.3v0.2l1,1.1l0.4,0.7l0.6,0.7v0.1l1.4,2.8l0.6,0.4v0.5l0.2,0.2v0.4l0.4,0.4l0.3,1
				l0.2,0.2l0.2,0.1h0.6l0.5,0.3l0.4,0.1l0.3,0.2l0.7,0.3l0.4,0.4l0.3,0.8l0.1,0.2l0.2,0.1l0.6,2.4v0.2v0.2l0.1,0.4l0.3,0.3
				l-0.2,0.2l0.1,0.6l0.3,0.5v0.3l0.1,0.2v0.6l1.5,1.5l0.1,0.1l0.7,0.3l0.3,0.7l0.2,0.3l2.1,2.2h0.1l0.5,0.5l0.7,0.8l0.3,0.8v0.2
				l0.5,0.9l0.9,3.5l0.3,0.4l0.1,0.8v0.6v0.1h0.7l0.3,0.2h0.2l0.5,0.4l0.2,0.1l0.5,0.2h0.6l0.5,0.3l0.9,0.3h0.2l0.6,0.1l0.5,0.3
				l1.1,1.8l0.5,0.3l0.4,0.5l0.2,0.7l0.3,0.3l0.4,1l0.8,1.3l1.8,2.1l1.1,1.3l0.3,0.2l0.2,0.4l0.4,0.5l0.5,0.6h0.2l0.2-0.2l0.4,0.2
				h0.4h0.3l1,0.3l2.5,0.4l0.6,0.4l0.6,0.7l0.8,1.7l0.1,0.5l0.1,1.1v0.3v0.6h0.1v0.9l-0.1,0.8v0.6l-1.5,4.8v0.1l0.5,0.7l0.4,0.3
				l0.4,0.6l0.2,0.2h0.2l0.3,0.5l0.2,0.2l0.4,0.1l0.5,0.4l2,1.1l0.1,0.2l0.4,0.1l0.4,0.5l0.9,0.5h0.2v-0.5v-0.4l0.3-0.2h0.7l0.4,0.2
				h0.4h0.1l0.7,0.3l0.3,0.3l0.5,0.5h0.1l0.3,0.3h0.6l0.5,0.4l0.3,0.5l0.3,0.7l0.1,0.1v0.2l0.3,1.4v1.4v1.1l-0.1,1.4v0.4l-0.2,0.8
				l-0.2,1.1l-0.5,1.7l-0.1,0.7l-0.8,3.9h1l0.3,0.6v0.7l1.1,0.9l0.3,0.5v0.9l-0.3,1.7l-0.3,1.4l-0.2,0.7l-0.2,0.6l-0.2,1l0.2,0.2
				v0.4l0.4,0.6h0.1l0.2,0.3l0.1,0.4l0.1,0.2l0.2,0.4l0.2,0.2v0.3l-0.1,0.6l-1.1,3.7l-0.5,1.3l-0.3,0.9v0.6l-0.2,0.1v0.4l-0.1,0.3
				h0.2l0.2,0.3l2,1h0.9l0.7,0.5l0.6,0.4l0.5,0.1l0.9,0.5l0.5,0.4l0.1,0.1l0.1,0.4l0.3,0.6l0.2,0.5v0.3l0.4,0.6l0.3,0.3l0.3,0.8
				l0.1,1.2h0.4l2.9-0.4l5-0.8l0.4-0.2l0.6,0.1h0.7h1.6l0.5-0.1h2.2h0.7l0.8-0.2h0.9l0.7,0.2l5.4,0.6l3.1,1.6h0.5l0.5,0.1l0.5,0.2
				l0.8,0.6l0.4,0.1l0.6,0.7l0.3-0.1h0.3l1.4-0.2v-0.1l0.8-0.2h0.9l0.7-0.1l2.1,0.9l0.4,0.1l0.3,0.2l0.3,0.1l1.8-0.5l0.3-0.3
				l-0.2-0.3l0.8-0.2h1.1l0.5,0.1l0.4-0.2h0.4l0.4-0.2l1.1,0.2l0.6,0.3l0.6-0.1l0.3,0.1l0.6,0.5l0.5,0.6l0.7,0.2l0.2,0.2l0.7,0.3
				h0.3l0.7,0.3l0.2,0.3h0.1h0.4l0.3,0.1l0.5,0.5l0.4,0.6h0.6l0.2,0.2l0.8,1l0.3,0.2l0.7,1h0.1l0.6-0.2l0.3,0.1l1,0.9l0.3,0.4
				l2.6,1.4l0.5,0.4l0.4,0.9l0.2,1.1v0.3l2,4.4l0.5,0.8h0.6l0.7,0.4l2.2,2l0.7,0.5h2.1l1.9,0.9l0.5,0.1l0.5,0.4l1.4,0.7l0.6,0.4
				l0.7,0.2l0.1,0.2l1.1,0.4l0.5,0.1l0.4-0.1l0.6,0.2h0.5l0.5,0.2l1,0.1l0.6,0.2h0.1l0.7,0.3l0.3,0.3l0.8,0.7l0.7,0.7l0.3-0.1
				l0.1-0.2h0.3v-0.2l0.3-0.5l0.2-0.1l0.8-0.2h0.6l0.2-0.3l0.4-0.1h0.6l2.6-0.1v-0.1l0.5-0.2l1.6,0.2l0.7-0.2l0.6,0.1l0.3-0.1h0.5
				l0.4,0.1l0.2-0.1l0.6-0.1l0.5,0.2h0.2l0.2-0.1l0.3,0.1l1.1,0.6l0.8,0.7l1,1.3l1.1,1.6l0.5,0.9l0.2,0.1l1.2,3.1l0.5,1.1l0.3,0.8
				l0.9,2.3l-0.1,0.1v1.1l-0.1,0.6l-0.5,0.3l-0.1,0.2v0.3l-0.5,0.3l-0.5,0.8l6.8,4.3l0.2-0.2l0.3,0.1l2.4-0.5l1.1-0.4h1.1v-0.3v-0.6
				l-0.2-0.7l0.4-0.5v-0.4h0.6l0.5,0.2l1.2,0.4l0.8,0.6l1.3,0.8l1.2,1.3l0.8,1.1l3.9,3.5l1.4,1.1l0.6,0.8l1.4,0.4l1.1,0.5h0.2
				l0.3,0.4l0.6,0.4l0.6,0.4l0.4,0.4l0.2,0.1l0.4,0.3v0.1l1.4,0.8l0.3,0.1l0.4,0.6l0.6,0.6l0.3,0.4l0.2,0.1l0.5,0.7l0.3,0.4l0.1,0.3
				l0.2,0.3l0.2-0.1l0.3,0.6l0.3,0.5v0.2h0.3l0.1,0.2l0.7,0.2l0.1-0.4h0.8l1.4,0.9l0.2,0.1l0.1,0.2l0.8,0.7l0.5,0.5l0.9,1.4l0.4,0.8
				l0.4,0.3l0.6,0.2l0.3,0.3l1,0.6l2.1,2l1.7,2.3l1.1,1.7l2,3.1v0.2l0.4,0.5l0.3,0.3l1.1,1.7l0.5,0.7l0.9,1.6l0.6,1l2.5,7.5l0.3,1.7
				v0.3l0.1,1l0.4,1.3v0.9l0.3,1l0.1,1.6v0.2v0.1l-0.1,0.7l-0.4,0.6l-0.4-0.1l-0.4,0.6v0.2l1.2,2.2v0.4l0.1,0.4v1.6v0.5v0.1l0.4,5.3
				l0.4-0.3l0.6-0.7l0.5-0.3h0.8l0.5,0.2l0.9,0.8l0.2,0.2l1.2,2.6l0.1,0.5v0.6l0.1,0.3l0.2,3.7v0.2v0.6l1.3-0.1l1.7-0.2l1.9-0.2
				l3.9-0.5h0.9l3.7-0.4l4.7-0.5l6.4-0.7l4.2-0.4l7.4-0.8l8.8-0.9l3-0.3l1.6-0.1l0.4-0.1l2.9-0.3l9.9-0.9l8.8-0.8l9.8-0.9l6.5-0.6
				l16.2-1.4l10.9-1l2.8-0.3l0.9-1.7l4.2,1.1l4.4-1.8l-0.1-2.4l3-3.1l0.3-4.1l-2.6-7.2l-7.2-0.3l-2.1-4.6l1.4-3.4v-6.9l-2.7-2.2
				l1.6-2l-1.2-3.9l4.7-2.2l3.4-6.1l1.7-1.3l-0.3-8l1.7-1.1l-1.6-9.9l1.2-0.6l-1.1-5.5l4.1-4.2l0.2-3.6l1.1-2l7.8-3.9l4.5-5l1.1-2.8
				l-1.8-2.9l-2.6-1.2l-5.6-5.1l-1.4,0.3l-0.3-5.2l-2.8-4.2l0.7-0.8l-2.2-6.3l-3.9-3.2l-2.1-4.9l-2-1.6l-0.2-8.4l-49.5-50.3
				l-9.6-9.6l-6.7-6.4l-27.4-27l-30.5-29.3l-32.6-30.8l-29.1-26.9l-35.7-32.3l-8.5-7.4l-12.4-11.2l-15.6-13.7l-4.8-4.1v-4.2
				l-0.2-2.8v-20.8l0.2-17.3l0.2-12.5v-53.3l-0.2-25.2l0.2-27.1l-0.2-23.5h-43l-27.7-0.2L1690.2,1669z M1806.2,2163.4l0.4,0
				l-0.1,0.3h-0.3l0.3,0.2l0.4-0.1l1.4,1v0.3h0.3l0.3,0.3v3v0.1l0.4,0.1l0.3,0.3l0.6,0.3h0.1l0.5,0.1l0.5,0.3v0.2l0.7-0.3l0.5,0.1
				l0.2,0.2h0.1l0.9-0.1l0.5,0.1h0.1l0.3-0.3h0.4l0.8,0.1l0.3,0.1l0.4-0.2v-0.2l0.3-0.2h0.1l2-1.2l3.9-0.4l0.3-0.1h0.7l0.5-0.7v-0.2
				l0.3-0.3v-0.2l0.3-0.4l0.5-0.1l0.4-0.5l-3.4-0.9h-0.2l-0.5,0.9l0.1,0.2l-0.4,0.6l-0.3,0.3l-0.9,0.2l-0.3-0.2h-0.4v-0.1h-0.4
				l-0.4,0.1l-0.2-0.2h-0.6l-3.1-2h-0.2l-0.1-0.2l-0.2-0.1l-0.5,0.2h-0.4l-1.4,0.2h-0.6l-0.1-0.2l-4.5-1.4L1806.2,2163.4z
				 M1784.5,2163.3l-0.3,0.4l-0.9,0.7l-0.6,0.1l-0.3-0.1l-1.4,0.8l-0.1,0.1h-0.2l-0.3,0.2l1.3,0.3l0.3-0.3h0.3l0.8,0.4l0.4,0.1
				l0.4,0.4l0.4,0.2h0.5l0.1-0.2h0.9h0.3l0.9-0.1v-0.1l-1.4-1.5l-0.5,0.1l-0.6-0.2v-0.3l0.3-0.2l-0.3-0.7v-0.1L1784.5,2163.3z
				 M1799.4,2165.5l-0.1,0.3h-0.2l-0.2,0.3l-0.8,0.3h-1.3l-0.3-0.2h-0.3l-1.3,0.3l-0.7,0.6l-0.5,0.1l-0.3-0.1l-0.6,0.2h-0.6
				l-0.3-0.2l-1.4,0.3l0.2,0.3h0.2v0.2l0.4,0.1l0.4,0.2l0.1,0.5l0.5,0.4l0.4,1v0.3l0.4,0.3l0.5,1.2l2.8,2l0.7-0.3l0.1-0.2l0.3-0.2
				h0.4h0.4l0.4-0.2h0.2l1.1-0.4l0.3-0.4l0.5-0.2l0.4-0.4l1-0.4h1.4v-0.6l-0.1-0.2l-0.1-0.8v-0.7l-0.3-0.1l-0.9,0.3l-0.5-0.1v-0.2
				l-0.5-0.2l-0.8-0.5l-0.3-0.3l-0.1-0.8v-0.5l0.1-0.3v-0.4v-0.3L1799.4,2165.5z M1790.5,2167.5L1790.5,2167.5L1790.5,2167.5
				L1790.5,2167.5z M1873.1,2203l0.1-0.1h0.8l0.2,0.3l0.5-0.1l0.3,0.3h0.1l0.1-0.3l0.6,0.5l0.5,0.2l0.1,0.4l-0.1,0.2l0.3,0.8v0.4
				l0.3,0.4l-0.3,0.2v0.3l-0.2,0.2l0.2,0.2l-0.4,0.6v0.3l1.4,2.1l4.1,0.1l0.2,0.1l0.8,0.4l0.2,0.2l1.2,0.7l0.7-2.2l-0.7-0.8
				l-0.3-0.2l-0.1-0.4l-0.9-1l-0.6-0.9h-0.2v-0.4l0.1-0.3v-0.4l-0.3-0.1h-0.3v-0.2l-3.1-1l-1.7-1.2l-0.5,0.3h-0.3v-0.4l-0.1-0.3
				l-0.4-0.1l-0.6-0.4l-0.1-0.3l-0.3-0.1l-0.2-0.3l-1.7-0.1h-0.8l-0.9-0.3L1873.1,2203z M1825.1,2212.2l-0.1,0.2h-0.6v0.2l-0.5,0.4
				l-0.7-0.5l1.2,2.6l5.5,1l-1.3-2.3l-1.2-0.5h-0.4l-0.3-0.4l-0.8-0.5l-0.3-0.2l-0.3-0.1H1825.1z M1870.6,2228.2l0.4,0.9h0.1
				l0.4,0.3l0.4,1.4l0.1,0.2v0.8l0.4,0.6l0.4,0.4l0.2,0.4l0.2,0.3v0.8l0.2,0.2v0.4v0.2v0.2h0.1v0.3l0.3,0.5h0.3l0.3,0.7l0.3,0.5
				l0.6,0.5v0.6l0.3,0.4l0.1,0.4l0.3,0.4h0.2v0.2l0.8,0.4l0.1,0.3l0.4,0.2l0.5,0.6l0.1,0.1h0.2l0.3,0.3l0.2,0.1v0.3l0.5,0.3h0.1
				l0.1-0.1l0.6-0.2l0.1-0.5l0.7-0.3l0.7,0.3h0.5l0.2,0.1l0.5-0.1l-0.3-0.3l-6.4-6.1l-0.1-0.2l-0.3-0.4l-0.9-1.3v-0.3l-0.3-0.4
				l-0.5-0.5l-0.1-0.3l-0.3-0.2l-0.3-0.5l-0.1-0.8l-0.3-0.2h-0.2l-0.3-0.8v-0.3l-0.3-0.4l-1.7-0.1L1870.6,2228.2z"/>
		</g>
		<g>
			<pattern  id="path-2_3_" xlink:href="#pattern-3" patternTransform="matrix(1 0 0 -1 -81 -18440)">
			</pattern>
			<path id="path-2_1_" class="st2" d="M1690.2,1669l-16.9,0.2h-29.1l-14.1,0.1l-14.9,0.4l-19-0.2l0.1,0.5l0.2,0.4v1.1l-0.2,0.9
				l0.3,0.3v0.6v1.1l-0.2,2l-0.4,2.2v0.4l-0.2,0.4l-0.3,0.8l-0.5,1.4l-0.5,1.1l-0.3,0.1v0.3l3.3,2.7l0.5-0.4l0.6,0.4l0.5,0.7
				l0.5,1.2h0.1l2.1,6.6l0.7,3.3h0.3v0.8l0.9,4.3l-0.1,1.1l0.1,0.5l-0.3,2.7l-0.1,1.3l-0.8,4.3l-0.1,1.1l-0.2,0.5l-0.8,3.9l-0.2,0.4
				l-0.4,1.3l-0.6,1.6l-0.5,1.4h-0.6l-0.3,0.3l0.1,0.3v0.1v0.4l0.1,0.2v0.5l0.1,1.5v0.1v0.2l0.1,1.1l0.1,0.3v0.3h0.2l0.5,0.1
				l0.5,0.4l0.3,0.4v0.2l0.5,0.9l-0.1,0.6l-0.3,1.6l-0.9,3.9l-0.8,2.3l-0.2,0.7l-0.5,0.9l-0.5,1.1l-1.2,2.4l-1.1,1.8l-0.4,0.8
				l-0.8,1.7l-1.2,2.1l-2.7,5.2v0.2l-0.8,2l-2,5.7v0.1l-0.5,1.8l-0.1,0.2l-0.4,1.3v0l0.2,0.2v0.6l0.2,0.4l0.2,0.3l0.2,0.4l0.6,0.5
				l0.3,0.3l0.4,1.2l0.1,2l0.2,0.5l0.3,0.3l0.2,0.9v0.2l-0.7,3.5l0.3,0.3l1.1,0.8l0.3,0.2l0.1,0.1l10.5,8.2l0.3,0.5l0.8,1.1l0.4,0.8
				v2.3l0.2,0.2l0.4,0.2l0.1-0.1h0.4l0.4,0.2l0.5,0.4l0.6,0.8l0.8,0.8l0.3,0.3l0.5,0.8l0.8,0.6l0.2,0.6l2.2,2.7l0.7,1.8v0.5l0.3,0.6
				l0.3,0.2v0.1l2.4,1.5l0.3,1.1v0.5l0.3,0.8l0.2,1.2v0.9l0.1,0.7l0.4,1.1h-0.2l0.1,0.5l0.2,0.3l0.8,0.5l0.2,0.7l0.5,0.5v0.3
				l0.1,0.1v1.3l0.1,0.3v1v0.3l0.1,0.7l-0.1,0.1l0.2,0.3v0.7l-0.2,0.1v0.3v0.4v0.3l0.5,0.5v0.3l0.3,0.4v0.2l0.3,0.6v0.4l-0.5,1.8
				l-0.3,1l-0.5,1l-0.2,0.1l-0.2,0.4v0.6l-0.1,0.3l-0.2,0.8l-0.2,1.5l0.3,0.2l-0.3,0.1v0.3v0.2v0.5l-0.3,2.3v0.3l0.4,0.4l-0.4-0.1
				l0.1,0.3l-0.2,0.4v0.6l0.5,0.5v0.3l0.4,0.6l0.4,0.4v0.3h-0.3l0.3,0.6l0.2,0.1v0.6v0.1l0.2,1.2v0.1l0.1,0.6v0.4h0.2l0.3,1
				l-0.2,0.3h0.1l0.1,0.5l0.3,0.4h-0.4l0.3,0.8l-0.1,0.2v0.3l0.5,0.1l0.3,0.8l0.9,1l0.5,1.5l0.4,0.2v0.4v0.3l0.2,0.3l0.1,0.6
				l0.3,0.4l-0.1,0.2l0.9,3l-0.1,0.6l0.1,0.3l-0.1,0.7v0.3l-0.3,1l-0.6,1.5l-0.8,3.8h0l0.5,0.2v0.2l0.4,0.6l0.7,0.5l0.4,0.7l1,0.6
				l0.3,0.4l0.1,0.6l0.2,0.6l0.5,0.1l0.5,0.5l0.1,0.3h0.3l0.7,0.5l0.3,0.5l0.9,0.8h0.1l0.4,0.3l0.5,0.5v0.1l0.3,0.2l0.3,0.1l0.4,0.4
				v0.1l0.5,0.4l3.5,3.2l0.5,0.8l0.2,0.2h0.2l0.5,0.8v0.2l0.3,0.4l0.4,0.2l0.1,0.4l0.5,0.6l-0.1,0.1l1,1.4l0.3,0.4l0.2,0.2l0.2,0.4
				l0.4,0.1v0.4l0.3,0.4l0.3,0.3h0.4l0.3,0.4l0.2,0.4v0.6l0.5,0.5h0.2v0.2l0.6,0.3l0.2,0.4l0.4,0.4l0.9,0.4v0.3l0.3-0.1l0.3,0.2v0.3
				l0.9,0.9l0.2-0.1l0.5,0.2l0.2,0.4l0.5,0.3h0.3l0.6,0.3l0.2,0.2l0.6,0.3l0.9,0.7l0.8,0.1l0.8,0.5v0.1l0.4,0.2l0.5,0.3l1.1,2.1
				l0.2,0.5l0.5,0.9l0.3,0.1l0.2,0.7l0.1,0.3l0.5,0.8v1.6l-0.2,0.5v0.5l1.1,0.4l0.5-0.2l0.7,0.2l1,0.8h0.1v0.1l0.2,0.3l0.1,0.4
				l0.3,0.2l0.1,0.4l0.4,0.3l0.4,1v0.5l-0.1,0.3v0.4l-0.3,0.2l-0.4-0.5l-0.3-0.2l0.3,0.8l0.3,0.4v0.4l0.6,0.8l0.1,1l0.2,0.4l0.3,0.1
				l0.3,0.9v0.4v0.2l-0.1,0.4l-0.1,0.6l-0.4,1.6l-1.6,4.4l-0.9,2.4l1.9-1l0.8-0.5l0.8-0.2l0.8,0.2h0.9l1.1,0.2l1.2,0.5l1.8,1.3v0.1
				l0.5,0.6l0.6,0.5l0.1,0.3l2.5,2.7l0.3,0.2l0.2,0.4l1.4,1.5h0.1l0.4-0.4l0.7-0.3l1,0.1l0.8,0.4l0.6,0.7l0.6,0.5h0.1l0.6,0.2l1,1.1
				v-0.2l0.3,0.3l0.6,0.3l0.1,0.3l0.5,0.7l0.6,0.4l0.1,0.2l3-0.4v-0.2l-0.3-0.5l-0.1-0.4v-0.5l-0.8-0.4l-0.3-0.5l0.2-0.2l-0.2-1h0.6
				l0.3,0.3l0.4,0.2l0.1,0.3l-0.1,0.4l0.3,0.4l0.5,0.4l-0.2-0.5h0.6l0.3-0.5l0.3-0.1l-2-1.5l-0.1-0.7l-0.2-0.2h-0.4l-0.4-0.4
				l-0.1-0.9l0.8,0.4l0.2-0.2l-0.4-1.8v-0.2l1.1-0.5v-0.2l0.3-0.2l0.1,0.1l0.8-0.4l-1.4-1h-0.1l-0.1-0.2l-0.4-0.3h-0.2l-0.1-0.3
				v-0.3v-0.5l0.1-0.3l0.3-4.5l0.4-0.2h0.2l3.9-1.8h0.3l1.6,0.6l0.8,0.4l1.4,0.9l0.6,0.4h0.2l0.3,0.4l0.7,0.9l0.3,0.8l0.4,0.5
				l0.3,0.5v0.4l-0.4,0.3l-0.2,0.2v0.4l-0.3,0.5h-0.3l-0.2,0.4l-0.3,0.3h-0.7l-0.8,0.6l-1.1-0.4h-0.3l-0.2-0.2v0.9l0.2,0.4l-0.2,0.5
				v0.3h-0.1l-0.6,0.3l-1,0.2v0.2l0.3,0.4l-0.3,0.3l-0.3-0.1l-0.2-0.4l-0.8-0.1v0.3l0.5,1h0.1l0.1,0.4l0.3,0.4h0.3l0.5,0.4l0.2,0.3
				l-0.1,0.7l1.2,0.2l0.3-0.2l0.8,0.1l0.5-0.1l0.5,0.2l-0.1,0.4l0.5,0.1l0.3,0.3h-0.3l0.4,2l0.3,0.3v0.5v0.4l0.1,0.7l-1.7,2.4v0.2
				l0.3,0.4l0.4,0.1l0.1,0.2l0.5,0.1v0.2l0.8,0.2v0.3h0.3l0.2-0.3l0.4,0.4l1.4,0.6v0.1l-0.8,0.4v0.3l0.3,0.3l2.1,1.7v-0.2l0.4-0.1
				l0.1,0.4l0.4,0.6l0.3,0.3h0.1l0.1,0.3l0.6,0.5v0.2l0.3,0.4l0.4,1.6v0.9l1.4,4.1h0.1l0.8,2v1.3v0.4h0.6l0.2-0.1l0.5-0.1l1.3,0.4
				l0.7,2h-0.2l0.2,0.1v0.4l-0.4,0.4l-0.6,0.1l-0.5-0.2l-1-0.1l-0.6-0.6h-0.4l-0.3-0.2l-0.1-0.2l-2.1-2l-0.9-0.7l-0.1-0.2l-0.3-0.1
				l-0.6-0.5v-0.1l-1.6-1.5l-0.6-0.4l-0.3-0.4l-0.4-0.4l-0.2-0.1l-0.5,0.2l-0.5-0.3h-1.1l-0.5-0.6l-2.1-0.5l-0.5-0.6l-0.4-0.2
				l0.3-0.5h0.2l0.3,0.2l-0.3-1.1l-0.5-0.3l-0.3-0.3h-0.2l-0.1-0.3h0.6l0.1-0.6l-0.3-1.3l-0.3-0.1l-0.3-1.8l1.6-1.2l-0.9-0.2v-0.2
				l0.4-0.2l-0.4-0.5l-0.2-0.4v-0.4l-0.1-1.1l-0.7-1.6l-0.1-0.2l-5.6,1.6l0.5,4.6l0.3,1.3l0.1,2.6v1.3v0.7l-0.9,3.6v0.5l-0.1,0.3
				v0.3v0.4l2.5,2v0.1l0.4,0.2l0.4,0.8l0.3,1.2v0.5l2.2,5.7v1.4l-0.5,4.4l-0.3,1v0.2l0.3,1.1l0.3,0.4v0.2l0.4,1.4l0.2,0.7l0.5-0.1
				l0.3,0.1l0.6,0.5l0.3,0.5v0.5v0.4l0.4,0.3l0.4,0.1l0.3,0.5v1v0.2h0.3l0.3,0.1l0.6-0.2l0.4,0.1l0.6,0.5l0.5,0.4l0.4,0.8l0.7,1.1
				l0.4,0.8l0.4,0.4l0.8,0.9l0.2,0.6l0.1,0.2h0.2v0.2l0.3,0.1v0.2l5,3.7l0.2,0.1l3.9,0.1l0.1-0.4l0.5-0.1l1,0.3h0.5l0.5,0.3l1-1.1
				l0.6-0.4h0.4l1.1,0.5l0.6,0.4l0.7,0.7l0.5,0.7l0.3,0.4l1.7,3.2l0.4,0.9l0.4,0.8l0.6,1.5l0.3,0.7l0.2,0.6l-1.3,7.5l-0.2,0.4
				l-0.4,1.2l-0.4,0.7l-0.5,1l-0.2,0.3l-0.1,0.3l0.4,0.5l-0.4,0.5l-0.5,0.4l-0.4,0.1h-0.5l-1.2-1.3l-0.3-0.2l-0.1-0.2l-0.3-0.3
				l-2.1,4.2l0.9,0.3l0.1-0.2h0.3l0.4,0.3l0.1,0.2v0.6l-0.2,0.1l0.2,0.4l0.2,0.8l-0.2,0.1h-0.4v0.2h-0.2l-0.1,0.8h0.2l-0.1,0.4h0.2
				l-0.5,0.5l0.4,0.5v0.5l0.4,0.3l0.2,0.8h-0.2l0.2,0.5l0.3,0.6v0.3l0.2,0.2v0.3l0.6,1.7v2.7l0.4,0.6v0.4l-0.2,0.3l0.1,0.6l-0.3,0.6
				l0.1,0.2l0.4,0.1l0.6,0.9l0.5,0.3v0.2l0.6,0.2l0.6,1.1l0.1,0.6l0.5,0.5h0.2l0.4,0.4l0.3,0.1l0.5-0.1l0.5,0.4h0.3l0.6,0.4l0.6,0.6
				h0.3l1.3,0.8l0.3,0.2l1.2,1.5l0.2,0.2l0.5,0.3v0.2l1,1.1l0.4,0.7l0.6,0.7v0.1l1.4,2.8l0.6,0.4v0.5l0.2,0.2v0.4l0.4,0.4l0.3,1
				l0.2,0.2l0.2,0.1h0.6l0.5,0.3l0.4,0.1l0.3,0.2l0.7,0.3l0.4,0.4l0.3,0.8l0.1,0.2l0.2,0.1l0.6,2.4v0.2v0.2l0.1,0.4l0.3,0.3
				l-0.2,0.2l0.1,0.6l0.3,0.5v0.3l0.1,0.2v0.6l1.5,1.5l0.1,0.1l0.7,0.3l0.3,0.7l0.2,0.3l2.1,2.2h0.1l0.5,0.5l0.7,0.8l0.3,0.8v0.2
				l0.5,0.9l0.9,3.5l0.3,0.4l0.1,0.8v0.6v0.1h0.7l0.3,0.2h0.2l0.5,0.4l0.2,0.1l0.5,0.2h0.6l0.5,0.3l0.9,0.3h0.2l0.6,0.1l0.5,0.3
				l1.1,1.8l0.5,0.3l0.4,0.5l0.2,0.7l0.3,0.3l0.4,1l0.8,1.3l1.8,2.1l1.1,1.3l0.3,0.2l0.2,0.4l0.4,0.5l0.5,0.6h0.2l0.2-0.2l0.4,0.2
				h0.4h0.3l1,0.3l2.5,0.4l0.6,0.4l0.6,0.7l0.8,1.7l0.1,0.5l0.1,1.1v0.3v0.6h0.1v0.9l-0.1,0.8v0.6l-1.5,4.8v0.1l0.5,0.7l0.4,0.3
				l0.4,0.6l0.2,0.2h0.2l0.3,0.5l0.2,0.2l0.4,0.1l0.5,0.4l2,1.1l0.1,0.2l0.4,0.1l0.4,0.5l0.9,0.5h0.2v-0.5v-0.4l0.3-0.2h0.7l0.4,0.2
				h0.4h0.1l0.7,0.3l0.3,0.3l0.5,0.5h0.1l0.3,0.3h0.6l0.5,0.4l0.3,0.5l0.3,0.7l0.1,0.1v0.2l0.3,1.4v1.4v1.1l-0.1,1.4v0.4l-0.2,0.8
				l-0.2,1.1l-0.5,1.7l-0.1,0.7l-0.8,3.9h1l0.3,0.6v0.7l1.1,0.9l0.3,0.5v0.9l-0.3,1.7l-0.3,1.4l-0.2,0.7l-0.2,0.6l-0.2,1l0.2,0.2
				v0.4l0.4,0.6h0.1l0.2,0.3l0.1,0.4l0.1,0.2l0.2,0.4l0.2,0.2v0.3l-0.1,0.6l-1.1,3.7l-0.5,1.3l-0.3,0.9v0.6l-0.2,0.1v0.4l-0.1,0.3
				h0.2l0.2,0.3l2,1h0.9l0.7,0.5l0.6,0.4l0.5,0.1l0.9,0.5l0.5,0.4l0.1,0.1l0.1,0.4l0.3,0.6l0.2,0.5v0.3l0.4,0.6l0.3,0.3l0.3,0.8
				l0.1,1.2h0.4l2.9-0.4l5-0.8l0.4-0.2l0.6,0.1h0.7h1.6l0.5-0.1h2.2h0.7l0.8-0.2h0.9l0.7,0.2l5.4,0.6l3.1,1.6h0.5l0.5,0.1l0.5,0.2
				l0.8,0.6l0.4,0.1l0.6,0.7l0.3-0.1h0.3l1.4-0.2v-0.1l0.8-0.2h0.9l0.7-0.1l2.1,0.9l0.4,0.1l0.3,0.2l0.3,0.1l1.8-0.5l0.3-0.3
				l-0.2-0.3l0.8-0.2h1.1l0.5,0.1l0.4-0.2h0.4l0.4-0.2l1.1,0.2l0.6,0.3l0.6-0.1l0.3,0.1l0.6,0.5l0.5,0.6l0.7,0.2l0.2,0.2l0.7,0.3
				h0.3l0.7,0.3l0.2,0.3h0.1h0.4l0.3,0.1l0.5,0.5l0.4,0.6h0.6l0.2,0.2l0.8,1l0.3,0.2l0.7,1h0.1l0.6-0.2l0.3,0.1l1,0.9l0.3,0.4
				l2.6,1.4l0.5,0.4l0.4,0.9l0.2,1.1v0.3l2,4.4l0.5,0.8h0.6l0.7,0.4l2.2,2l0.7,0.5h2.1l1.9,0.9l0.5,0.1l0.5,0.4l1.4,0.7l0.6,0.4
				l0.7,0.2l0.1,0.2l1.1,0.4l0.5,0.1l0.4-0.1l0.6,0.2h0.5l0.5,0.2l1,0.1l0.6,0.2h0.1l0.7,0.3l0.3,0.3l0.8,0.7l0.7,0.7l0.3-0.1
				l0.1-0.2h0.3v-0.2l0.3-0.5l0.2-0.1l0.8-0.2h0.6l0.2-0.3l0.4-0.1h0.6l2.6-0.1v-0.1l0.5-0.2l1.6,0.2l0.7-0.2l0.6,0.1l0.3-0.1h0.5
				l0.4,0.1l0.2-0.1l0.6-0.1l0.5,0.2h0.2l0.2-0.1l0.3,0.1l1.1,0.6l0.8,0.7l1,1.3l1.1,1.6l0.5,0.9l0.2,0.1l1.2,3.1l0.5,1.1l0.3,0.8
				l0.9,2.3l-0.1,0.1v1.1l-0.1,0.6l-0.5,0.3l-0.1,0.2v0.3l-0.5,0.3l-0.5,0.8l6.8,4.3l0.2-0.2l0.3,0.1l2.4-0.5l1.1-0.4h1.1v-0.3v-0.6
				l-0.2-0.7l0.4-0.5v-0.4h0.6l0.5,0.2l1.2,0.4l0.8,0.6l1.3,0.8l1.2,1.3l0.8,1.1l3.9,3.5l1.4,1.1l0.6,0.8l1.4,0.4l1.1,0.5h0.2
				l0.3,0.4l0.6,0.4l0.6,0.4l0.4,0.4l0.2,0.1l0.4,0.3v0.1l1.4,0.8l0.3,0.1l0.4,0.6l0.6,0.6l0.3,0.4l0.2,0.1l0.5,0.7l0.3,0.4l0.1,0.3
				l0.2,0.3l0.2-0.1l0.3,0.6l0.3,0.5v0.2h0.3l0.1,0.2l0.7,0.2l0.1-0.4h0.8l1.4,0.9l0.2,0.1l0.1,0.2l0.8,0.7l0.5,0.5l0.9,1.4l0.4,0.8
				l0.4,0.3l0.6,0.2l0.3,0.3l1,0.6l2.1,2l1.7,2.3l1.1,1.7l2,3.1v0.2l0.4,0.5l0.3,0.3l1.1,1.7l0.5,0.7l0.9,1.6l0.6,1l2.5,7.5l0.3,1.7
				v0.3l0.1,1l0.4,1.3v0.9l0.3,1l0.1,1.6v0.2v0.1l-0.1,0.7l-0.4,0.6l-0.4-0.1l-0.4,0.6v0.2l1.2,2.2v0.4l0.1,0.4v1.6v0.5v0.1l0.4,5.3
				l0.4-0.3l0.6-0.7l0.5-0.3h0.8l0.5,0.2l0.9,0.8l0.2,0.2l1.2,2.6l0.1,0.5v0.6l0.1,0.3l0.2,3.7v0.2v0.6l1.3-0.1l1.7-0.2l1.9-0.2
				l3.9-0.5h0.9l3.7-0.4l4.7-0.5l6.4-0.7l4.2-0.4l7.4-0.8l8.8-0.9l3-0.3l1.6-0.1l0.4-0.1l2.9-0.3l9.9-0.9l8.8-0.8l9.8-0.9l6.5-0.6
				l16.2-1.4l10.9-1l2.8-0.3l0.9-1.7l4.2,1.1l4.4-1.8l-0.1-2.4l3-3.1l0.3-4.1l-2.6-7.2l-7.2-0.3l-2.1-4.6l1.4-3.4v-6.9l-2.7-2.2
				l1.6-2l-1.2-3.9l4.7-2.2l3.4-6.1l1.7-1.3l-0.3-8l1.7-1.1l-1.6-9.9l1.2-0.6l-1.1-5.5l4.1-4.2l0.2-3.6l1.1-2l7.8-3.9l4.5-5l1.1-2.8
				l-1.8-2.9l-2.6-1.2l-5.6-5.1l-1.4,0.3l-0.3-5.2l-2.8-4.2l0.7-0.8l-2.2-6.3l-3.9-3.2l-2.1-4.9l-2-1.6l-0.2-8.4l-49.5-50.3
				l-9.6-9.6l-6.7-6.4l-27.4-27l-30.5-29.3l-32.6-30.8l-29.1-26.9l-35.7-32.3l-8.5-7.4l-12.4-11.2l-15.6-13.7l-4.8-4.1v-4.2
				l-0.2-2.8v-20.8l0.2-17.3l0.2-12.5v-53.3l-0.2-25.2l0.2-27.1l-0.2-23.5h-43l-27.7-0.2L1690.2,1669z M1806.2,2163.4l0.4,0
				l-0.1,0.3h-0.3l0.3,0.2l0.4-0.1l1.4,1v0.3h0.3l0.3,0.3v3v0.1l0.4,0.1l0.3,0.3l0.6,0.3h0.1l0.5,0.1l0.5,0.3v0.2l0.7-0.3l0.5,0.1
				l0.2,0.2h0.1l0.9-0.1l0.5,0.1h0.1l0.3-0.3h0.4l0.8,0.1l0.3,0.1l0.4-0.2v-0.2l0.3-0.2h0.1l2-1.2l3.9-0.4l0.3-0.1h0.7l0.5-0.7v-0.2
				l0.3-0.3v-0.2l0.3-0.4l0.5-0.1l0.4-0.5l-3.4-0.9h-0.2l-0.5,0.9l0.1,0.2l-0.4,0.6l-0.3,0.3l-0.9,0.2l-0.3-0.2h-0.4v-0.1h-0.4
				l-0.4,0.1l-0.2-0.2h-0.6l-3.1-2h-0.2l-0.1-0.2l-0.2-0.1l-0.5,0.2h-0.4l-1.4,0.2h-0.6l-0.1-0.2l-4.5-1.4L1806.2,2163.4z
				 M1784.5,2163.3l-0.3,0.4l-0.9,0.7l-0.6,0.1l-0.3-0.1l-1.4,0.8l-0.1,0.1h-0.2l-0.3,0.2l1.3,0.3l0.3-0.3h0.3l0.8,0.4l0.4,0.1
				l0.4,0.4l0.4,0.2h0.5l0.1-0.2h0.9h0.3l0.9-0.1v-0.1l-1.4-1.5l-0.5,0.1l-0.6-0.2v-0.3l0.3-0.2l-0.3-0.7v-0.1L1784.5,2163.3z
				 M1799.4,2165.5l-0.1,0.3h-0.2l-0.2,0.3l-0.8,0.3h-1.3l-0.3-0.2h-0.3l-1.3,0.3l-0.7,0.6l-0.5,0.1l-0.3-0.1l-0.6,0.2h-0.6
				l-0.3-0.2l-1.4,0.3l0.2,0.3h0.2v0.2l0.4,0.1l0.4,0.2l0.1,0.5l0.5,0.4l0.4,1v0.3l0.4,0.3l0.5,1.2l2.8,2l0.7-0.3l0.1-0.2l0.3-0.2
				h0.4h0.4l0.4-0.2h0.2l1.1-0.4l0.3-0.4l0.5-0.2l0.4-0.4l1-0.4h1.4v-0.6l-0.1-0.2l-0.1-0.8v-0.7l-0.3-0.1l-0.9,0.3l-0.5-0.1v-0.2
				l-0.5-0.2l-0.8-0.5l-0.3-0.3l-0.1-0.8v-0.5l0.1-0.3v-0.4v-0.3L1799.4,2165.5z M1790.5,2167.5L1790.5,2167.5L1790.5,2167.5
				L1790.5,2167.5z M1873.1,2203l0.1-0.1h0.8l0.2,0.3l0.5-0.1l0.3,0.3h0.1l0.1-0.3l0.6,0.5l0.5,0.2l0.1,0.4l-0.1,0.2l0.3,0.8v0.4
				l0.3,0.4l-0.3,0.2v0.3l-0.2,0.2l0.2,0.2l-0.4,0.6v0.3l1.4,2.1l4.1,0.1l0.2,0.1l0.8,0.4l0.2,0.2l1.2,0.7l0.7-2.2l-0.7-0.8
				l-0.3-0.2l-0.1-0.4l-0.9-1l-0.6-0.9h-0.2v-0.4l0.1-0.3v-0.4l-0.3-0.1h-0.3v-0.2l-3.1-1l-1.7-1.2l-0.5,0.3h-0.3v-0.4l-0.1-0.3
				l-0.4-0.1l-0.6-0.4l-0.1-0.3l-0.3-0.1l-0.2-0.3l-1.7-0.1h-0.8l-0.9-0.3L1873.1,2203z M1825.1,2212.2l-0.1,0.2h-0.6v0.2l-0.5,0.4
				l-0.7-0.5l1.2,2.6l5.5,1l-1.3-2.3l-1.2-0.5h-0.4l-0.3-0.4l-0.8-0.5l-0.3-0.2l-0.3-0.1H1825.1z M1870.6,2228.2l0.4,0.9h0.1
				l0.4,0.3l0.4,1.4l0.1,0.2v0.8l0.4,0.6l0.4,0.4l0.2,0.4l0.2,0.3v0.8l0.2,0.2v0.4v0.2v0.2h0.1v0.3l0.3,0.5h0.3l0.3,0.7l0.3,0.5
				l0.6,0.5v0.6l0.3,0.4l0.1,0.4l0.3,0.4h0.2v0.2l0.8,0.4l0.1,0.3l0.4,0.2l0.5,0.6l0.1,0.1h0.2l0.3,0.3l0.2,0.1v0.3l0.5,0.3h0.1
				l0.1-0.1l0.6-0.2l0.1-0.5l0.7-0.3l0.7,0.3h0.5l0.2,0.1l0.5-0.1l-0.3-0.3l-6.4-6.1l-0.1-0.2l-0.3-0.4l-0.9-1.3v-0.3l-0.3-0.4
				l-0.5-0.5l-0.1-0.3l-0.3-0.2l-0.3-0.5l-0.1-0.8l-0.3-0.2h-0.2l-0.3-0.8v-0.3l-0.3-0.4l-1.7-0.1L1870.6,2228.2z"/>
		</g>
		<g>
			
				<linearGradient id="path-2_6_" gradientUnits="userSpaceOnUse" x1="1533.965" y1="2359.4312" x2="1533.3473" y2="2359.9817" gradientTransform="matrix(257 0 0 -302 -392320 714591)">
				<stop  offset="0" style="stop-color:#53A0FD"/>
				<stop  offset="1" style="stop-color:#3062FF"/>
			</linearGradient>
			<path id="path-2_2_" class="st3" d="M1690.2,1669l-16.9,0.2h-29.1l-14.1,0.1l-14.9,0.4l-19-0.2l0.1,0.5l0.2,0.4v1.1l-0.2,0.9
				l0.3,0.3v0.6v1.1l-0.2,2l-0.4,2.2v0.4l-0.2,0.4l-0.3,0.8l-0.5,1.4l-0.5,1.1l-0.3,0.1v0.3l3.3,2.7l0.5-0.4l0.6,0.4l0.5,0.7
				l0.5,1.2h0.1l2.1,6.6l0.7,3.3h0.3v0.8l0.9,4.3l-0.1,1.1l0.1,0.5l-0.3,2.7l-0.1,1.3l-0.8,4.3l-0.1,1.1l-0.2,0.5l-0.8,3.9l-0.2,0.4
				l-0.4,1.3l-0.6,1.6l-0.5,1.4h-0.6l-0.3,0.3l0.1,0.3v0.1v0.4l0.1,0.2v0.5l0.1,1.5v0.1v0.2l0.1,1.1l0.1,0.3v0.3h0.2l0.5,0.1
				l0.5,0.4l0.3,0.4v0.2l0.5,0.9l-0.1,0.6l-0.3,1.6l-0.9,3.9l-0.8,2.3l-0.2,0.7l-0.5,0.9l-0.5,1.1l-1.2,2.4l-1.1,1.8l-0.4,0.8
				l-0.8,1.7l-1.2,2.1l-2.7,5.2v0.2l-0.8,2l-2,5.7v0.1l-0.5,1.8l-0.1,0.2l-0.4,1.3v0l0.2,0.2v0.6l0.2,0.4l0.2,0.3l0.2,0.4l0.6,0.5
				l0.3,0.3l0.4,1.2l0.1,2l0.2,0.5l0.3,0.3l0.2,0.9v0.2l-0.7,3.5l0.3,0.3l1.1,0.8l0.3,0.2l0.1,0.1l10.5,8.2l0.3,0.5l0.8,1.1l0.4,0.8
				v2.3l0.2,0.2l0.4,0.2l0.1-0.1h0.4l0.4,0.2l0.5,0.4l0.6,0.8l0.8,0.8l0.3,0.3l0.5,0.8l0.8,0.6l0.2,0.6l2.2,2.7l0.7,1.8v0.5l0.3,0.6
				l0.3,0.2v0.1l2.4,1.5l0.3,1.1v0.5l0.3,0.8l0.2,1.2v0.9l0.1,0.7l0.4,1.1h-0.2l0.1,0.5l0.2,0.3l0.8,0.5l0.2,0.7l0.5,0.5v0.3
				l0.1,0.1v1.3l0.1,0.3v1v0.3l0.1,0.7l-0.1,0.1l0.2,0.3v0.7l-0.2,0.1v0.3v0.4v0.3l0.5,0.5v0.3l0.3,0.4v0.2l0.3,0.6v0.4l-0.5,1.8
				l-0.3,1l-0.5,1l-0.2,0.1l-0.2,0.4v0.6l-0.1,0.3l-0.2,0.8l-0.2,1.5l0.3,0.2l-0.3,0.1v0.3v0.2v0.5l-0.3,2.3v0.3l0.4,0.4l-0.4-0.1
				l0.1,0.3l-0.2,0.4v0.6l0.5,0.5v0.3l0.4,0.6l0.4,0.4v0.3h-0.3l0.3,0.6l0.2,0.1v0.6v0.1l0.2,1.2v0.1l0.1,0.6v0.4h0.2l0.3,1
				l-0.2,0.3h0.1l0.1,0.5l0.3,0.4h-0.4l0.3,0.8l-0.1,0.2v0.3l0.5,0.1l0.3,0.8l0.9,1l0.5,1.5l0.4,0.2v0.4v0.3l0.2,0.3l0.1,0.6
				l0.3,0.4l-0.1,0.2l0.9,3l-0.1,0.6l0.1,0.3l-0.1,0.7v0.3l-0.3,1l-0.6,1.5l-0.8,3.8h0l0.5,0.2v0.2l0.4,0.6l0.7,0.5l0.4,0.7l1,0.6
				l0.3,0.4l0.1,0.6l0.2,0.6l0.5,0.1l0.5,0.5l0.1,0.3h0.3l0.7,0.5l0.3,0.5l0.9,0.8h0.1l0.4,0.3l0.5,0.5v0.1l0.3,0.2l0.3,0.1l0.4,0.4
				v0.1l0.5,0.4l3.5,3.2l0.5,0.8l0.2,0.2h0.2l0.5,0.8v0.2l0.3,0.4l0.4,0.2l0.1,0.4l0.5,0.6l-0.1,0.1l1,1.4l0.3,0.4l0.2,0.2l0.2,0.4
				l0.4,0.1v0.4l0.3,0.4l0.3,0.3h0.4l0.3,0.4l0.2,0.4v0.6l0.5,0.5h0.2v0.2l0.6,0.3l0.2,0.4l0.4,0.4l0.9,0.4v0.3l0.3-0.1l0.3,0.2v0.3
				l0.9,0.9l0.2-0.1l0.5,0.2l0.2,0.4l0.5,0.3h0.3l0.6,0.3l0.2,0.2l0.6,0.3l0.9,0.7l0.8,0.1l0.8,0.5v0.1l0.4,0.2l0.5,0.3l1.1,2.1
				l0.2,0.5l0.5,0.9l0.3,0.1l0.2,0.7l0.1,0.3l0.5,0.8v1.6l-0.2,0.5v0.5l1.1,0.4l0.5-0.2l0.7,0.2l1,0.8h0.1v0.1l0.2,0.3l0.1,0.4
				l0.3,0.2l0.1,0.4l0.4,0.3l0.4,1v0.5l-0.1,0.3v0.4l-0.3,0.2l-0.4-0.5l-0.3-0.2l0.3,0.8l0.3,0.4v0.4l0.6,0.8l0.1,1l0.2,0.4l0.3,0.1
				l0.3,0.9v0.4v0.2l-0.1,0.4l-0.1,0.6l-0.4,1.6l-1.6,4.4l-0.9,2.4l1.9-1l0.8-0.5l0.8-0.2l0.8,0.2h0.9l1.1,0.2l1.2,0.5l1.8,1.3v0.1
				l0.5,0.6l0.6,0.5l0.1,0.3l2.5,2.7l0.3,0.2l0.2,0.4l1.4,1.5h0.1l0.4-0.4l0.7-0.3l1,0.1l0.8,0.4l0.6,0.7l0.6,0.5h0.1l0.6,0.2l1,1.1
				v-0.2l0.3,0.3l0.6,0.3l0.1,0.3l0.5,0.7l0.6,0.4l0.1,0.2l3-0.4v-0.2l-0.3-0.5l-0.1-0.4v-0.5l-0.8-0.4l-0.3-0.5l0.2-0.2l-0.2-1h0.6
				l0.3,0.3l0.4,0.2l0.1,0.3l-0.1,0.4l0.3,0.4l0.5,0.4l-0.2-0.5h0.6l0.3-0.5l0.3-0.1l-2-1.5l-0.1-0.7l-0.2-0.2h-0.4l-0.4-0.4
				l-0.1-0.9l0.8,0.4l0.2-0.2l-0.4-1.8v-0.2l1.1-0.5v-0.2l0.3-0.2l0.1,0.1l0.8-0.4l-1.4-1h-0.1l-0.1-0.2l-0.4-0.3h-0.2l-0.1-0.3
				v-0.3v-0.5l0.1-0.3l0.3-4.5l0.4-0.2h0.2l3.9-1.8h0.3l1.6,0.6l0.8,0.4l1.4,0.9l0.6,0.4h0.2l0.3,0.4l0.7,0.9l0.3,0.8l0.4,0.5
				l0.3,0.5v0.4l-0.4,0.3l-0.2,0.2v0.4l-0.3,0.5h-0.3l-0.2,0.4l-0.3,0.3h-0.7l-0.8,0.6l-1.1-0.4h-0.3l-0.2-0.2v0.9l0.2,0.4l-0.2,0.5
				v0.3h-0.1l-0.6,0.3l-1,0.2v0.2l0.3,0.4l-0.3,0.3l-0.3-0.1l-0.2-0.4l-0.8-0.1v0.3l0.5,1h0.1l0.1,0.4l0.3,0.4h0.3l0.5,0.4l0.2,0.3
				l-0.1,0.7l1.2,0.2l0.3-0.2l0.8,0.1l0.5-0.1l0.5,0.2l-0.1,0.4l0.5,0.1l0.3,0.3h-0.3l0.4,2l0.3,0.3v0.5v0.4l0.1,0.7l-1.7,2.4v0.2
				l0.3,0.4l0.4,0.1l0.1,0.2l0.5,0.1v0.2l0.8,0.2v0.3h0.3l0.2-0.3l0.4,0.4l1.4,0.6v0.1l-0.8,0.4v0.3l0.3,0.3l2.1,1.7v-0.2l0.4-0.1
				l0.1,0.4l0.4,0.6l0.3,0.3h0.1l0.1,0.3l0.6,0.5v0.2l0.3,0.4l0.4,1.6v0.9l1.4,4.1h0.1l0.8,2v1.3v0.4h0.6l0.2-0.1l0.5-0.1l1.3,0.4
				l0.7,2h-0.2l0.2,0.1v0.4l-0.4,0.4l-0.6,0.1l-0.5-0.2l-1-0.1l-0.6-0.6h-0.4l-0.3-0.2l-0.1-0.2l-2.1-2l-0.9-0.7l-0.1-0.2l-0.3-0.1
				l-0.6-0.5v-0.1l-1.6-1.5l-0.6-0.4l-0.3-0.4l-0.4-0.4l-0.2-0.1l-0.5,0.2l-0.5-0.3h-1.1l-0.5-0.6l-2.1-0.5l-0.5-0.6l-0.4-0.2
				l0.3-0.5h0.2l0.3,0.2l-0.3-1.1l-0.5-0.3l-0.3-0.3h-0.2l-0.1-0.3h0.6l0.1-0.6l-0.3-1.3l-0.3-0.1l-0.3-1.8l1.6-1.2l-0.9-0.2v-0.2
				l0.4-0.2l-0.4-0.5l-0.2-0.4v-0.4l-0.1-1.1l-0.7-1.6l-0.1-0.2l-5.6,1.6l0.5,4.6l0.3,1.3l0.1,2.6v1.3v0.7l-0.9,3.6v0.5l-0.1,0.3
				v0.3v0.4l2.5,2v0.1l0.4,0.2l0.4,0.8l0.3,1.2v0.5l2.2,5.7v1.4l-0.5,4.4l-0.3,1v0.2l0.3,1.1l0.3,0.4v0.2l0.4,1.4l0.2,0.7l0.5-0.1
				l0.3,0.1l0.6,0.5l0.3,0.5v0.5v0.4l0.4,0.3l0.4,0.1l0.3,0.5v1v0.2h0.3l0.3,0.1l0.6-0.2l0.4,0.1l0.6,0.5l0.5,0.4l0.4,0.8l0.7,1.1
				l0.4,0.8l0.4,0.4l0.8,0.9l0.2,0.6l0.1,0.2h0.2v0.2l0.3,0.1v0.2l5,3.7l0.2,0.1l3.9,0.1l0.1-0.4l0.5-0.1l1,0.3h0.5l0.5,0.3l1-1.1
				l0.6-0.4h0.4l1.1,0.5l0.6,0.4l0.7,0.7l0.5,0.7l0.3,0.4l1.7,3.2l0.4,0.9l0.4,0.8l0.6,1.5l0.3,0.7l0.2,0.6l-1.3,7.5l-0.2,0.4
				l-0.4,1.2l-0.4,0.7l-0.5,1l-0.2,0.3l-0.1,0.3l0.4,0.5l-0.4,0.5l-0.5,0.4l-0.4,0.1h-0.5l-1.2-1.3l-0.3-0.2l-0.1-0.2l-0.3-0.3
				l-2.1,4.2l0.9,0.3l0.1-0.2h0.3l0.4,0.3l0.1,0.2v0.6l-0.2,0.1l0.2,0.4l0.2,0.8l-0.2,0.1h-0.4v0.2h-0.2l-0.1,0.8h0.2l-0.1,0.4h0.2
				l-0.5,0.5l0.4,0.5v0.5l0.4,0.3l0.2,0.8h-0.2l0.2,0.5l0.3,0.6v0.3l0.2,0.2v0.3l0.6,1.7v2.7l0.4,0.6v0.4l-0.2,0.3l0.1,0.6l-0.3,0.6
				l0.1,0.2l0.4,0.1l0.6,0.9l0.5,0.3v0.2l0.6,0.2l0.6,1.1l0.1,0.6l0.5,0.5h0.2l0.4,0.4l0.3,0.1l0.5-0.1l0.5,0.4h0.3l0.6,0.4l0.6,0.6
				h0.3l1.3,0.8l0.3,0.2l1.2,1.5l0.2,0.2l0.5,0.3v0.2l1,1.1l0.4,0.7l0.6,0.7v0.1l1.4,2.8l0.6,0.4v0.5l0.2,0.2v0.4l0.4,0.4l0.3,1
				l0.2,0.2l0.2,0.1h0.6l0.5,0.3l0.4,0.1l0.3,0.2l0.7,0.3l0.4,0.4l0.3,0.8l0.1,0.2l0.2,0.1l0.6,2.4v0.2v0.2l0.1,0.4l0.3,0.3
				l-0.2,0.2l0.1,0.6l0.3,0.5v0.3l0.1,0.2v0.6l1.5,1.5l0.1,0.1l0.7,0.3l0.3,0.7l0.2,0.3l2.1,2.2h0.1l0.5,0.5l0.7,0.8l0.3,0.8v0.2
				l0.5,0.9l0.9,3.5l0.3,0.4l0.1,0.8v0.6v0.1h0.7l0.3,0.2h0.2l0.5,0.4l0.2,0.1l0.5,0.2h0.6l0.5,0.3l0.9,0.3h0.2l0.6,0.1l0.5,0.3
				l1.1,1.8l0.5,0.3l0.4,0.5l0.2,0.7l0.3,0.3l0.4,1l0.8,1.3l1.8,2.1l1.1,1.3l0.3,0.2l0.2,0.4l0.4,0.5l0.5,0.6h0.2l0.2-0.2l0.4,0.2
				h0.4h0.3l1,0.3l2.5,0.4l0.6,0.4l0.6,0.7l0.8,1.7l0.1,0.5l0.1,1.1v0.3v0.6h0.1v0.9l-0.1,0.8v0.6l-1.5,4.8v0.1l0.5,0.7l0.4,0.3
				l0.4,0.6l0.2,0.2h0.2l0.3,0.5l0.2,0.2l0.4,0.1l0.5,0.4l2,1.1l0.1,0.2l0.4,0.1l0.4,0.5l0.9,0.5h0.2v-0.5v-0.4l0.3-0.2h0.7l0.4,0.2
				h0.4h0.1l0.7,0.3l0.3,0.3l0.5,0.5h0.1l0.3,0.3h0.6l0.5,0.4l0.3,0.5l0.3,0.7l0.1,0.1v0.2l0.3,1.4v1.4v1.1l-0.1,1.4v0.4l-0.2,0.8
				l-0.2,1.1l-0.5,1.7l-0.1,0.7l-0.8,3.9h1l0.3,0.6v0.7l1.1,0.9l0.3,0.5v0.9l-0.3,1.7l-0.3,1.4l-0.2,0.7l-0.2,0.6l-0.2,1l0.2,0.2
				v0.4l0.4,0.6h0.1l0.2,0.3l0.1,0.4l0.1,0.2l0.2,0.4l0.2,0.2v0.3l-0.1,0.6l-1.1,3.7l-0.5,1.3l-0.3,0.9v0.6l-0.2,0.1v0.4l-0.1,0.3
				h0.2l0.2,0.3l2,1h0.9l0.7,0.5l0.6,0.4l0.5,0.1l0.9,0.5l0.5,0.4l0.1,0.1l0.1,0.4l0.3,0.6l0.2,0.5v0.3l0.4,0.6l0.3,0.3l0.3,0.8
				l0.1,1.2h0.4l2.9-0.4l5-0.8l0.4-0.2l0.6,0.1h0.7h1.6l0.5-0.1h2.2h0.7l0.8-0.2h0.9l0.7,0.2l5.4,0.6l3.1,1.6h0.5l0.5,0.1l0.5,0.2
				l0.8,0.6l0.4,0.1l0.6,0.7l0.3-0.1h0.3l1.4-0.2v-0.1l0.8-0.2h0.9l0.7-0.1l2.1,0.9l0.4,0.1l0.3,0.2l0.3,0.1l1.8-0.5l0.3-0.3
				l-0.2-0.3l0.8-0.2h1.1l0.5,0.1l0.4-0.2h0.4l0.4-0.2l1.1,0.2l0.6,0.3l0.6-0.1l0.3,0.1l0.6,0.5l0.5,0.6l0.7,0.2l0.2,0.2l0.7,0.3
				h0.3l0.7,0.3l0.2,0.3h0.1h0.4l0.3,0.1l0.5,0.5l0.4,0.6h0.6l0.2,0.2l0.8,1l0.3,0.2l0.7,1h0.1l0.6-0.2l0.3,0.1l1,0.9l0.3,0.4
				l2.6,1.4l0.5,0.4l0.4,0.9l0.2,1.1v0.3l2,4.4l0.5,0.8h0.6l0.7,0.4l2.2,2l0.7,0.5h2.1l1.9,0.9l0.5,0.1l0.5,0.4l1.4,0.7l0.6,0.4
				l0.7,0.2l0.1,0.2l1.1,0.4l0.5,0.1l0.4-0.1l0.6,0.2h0.5l0.5,0.2l1,0.1l0.6,0.2h0.1l0.7,0.3l0.3,0.3l0.8,0.7l0.7,0.7l0.3-0.1
				l0.1-0.2h0.3v-0.2l0.3-0.5l0.2-0.1l0.8-0.2h0.6l0.2-0.3l0.4-0.1h0.6l2.6-0.1v-0.1l0.5-0.2l1.6,0.2l0.7-0.2l0.6,0.1l0.3-0.1h0.5
				l0.4,0.1l0.2-0.1l0.6-0.1l0.5,0.2h0.2l0.2-0.1l0.3,0.1l1.1,0.6l0.8,0.7l1,1.3l1.1,1.6l0.5,0.9l0.2,0.1l1.2,3.1l0.5,1.1l0.3,0.8
				l0.9,2.3l-0.1,0.1v1.1l-0.1,0.6l-0.5,0.3l-0.1,0.2v0.3l-0.5,0.3l-0.5,0.8l6.8,4.3l0.2-0.2l0.3,0.1l2.4-0.5l1.1-0.4h1.1v-0.3v-0.6
				l-0.2-0.7l0.4-0.5v-0.4h0.6l0.5,0.2l1.2,0.4l0.8,0.6l1.3,0.8l1.2,1.3l0.8,1.1l3.9,3.5l1.4,1.1l0.6,0.8l1.4,0.4l1.1,0.5h0.2
				l0.3,0.4l0.6,0.4l0.6,0.4l0.4,0.4l0.2,0.1l0.4,0.3v0.1l1.4,0.8l0.3,0.1l0.4,0.6l0.6,0.6l0.3,0.4l0.2,0.1l0.5,0.7l0.3,0.4l0.1,0.3
				l0.2,0.3l0.2-0.1l0.3,0.6l0.3,0.5v0.2h0.3l0.1,0.2l0.7,0.2l0.1-0.4h0.8l1.4,0.9l0.2,0.1l0.1,0.2l0.8,0.7l0.5,0.5l0.9,1.4l0.4,0.8
				l0.4,0.3l0.6,0.2l0.3,0.3l1,0.6l2.1,2l1.7,2.3l1.1,1.7l2,3.1v0.2l0.4,0.5l0.3,0.3l1.1,1.7l0.5,0.7l0.9,1.6l0.6,1l2.5,7.5l0.3,1.7
				v0.3l0.1,1l0.4,1.3v0.9l0.3,1l0.1,1.6v0.2v0.1l-0.1,0.7l-0.4,0.6l-0.4-0.1l-0.4,0.6v0.2l1.2,2.2v0.4l0.1,0.4v1.6v0.5v0.1l0.4,5.3
				l0.4-0.3l0.6-0.7l0.5-0.3h0.8l0.5,0.2l0.9,0.8l0.2,0.2l1.2,2.6l0.1,0.5v0.6l0.1,0.3l0.2,3.7v0.2v0.6l1.3-0.1l1.7-0.2l1.9-0.2
				l3.9-0.5h0.9l3.7-0.4l4.7-0.5l6.4-0.7l4.2-0.4l7.4-0.8l8.8-0.9l3-0.3l1.6-0.1l0.4-0.1l2.9-0.3l9.9-0.9l8.8-0.8l9.8-0.9l6.5-0.6
				l16.2-1.4l10.9-1l2.8-0.3l0.9-1.7l4.2,1.1l4.4-1.8l-0.1-2.4l3-3.1l0.3-4.1l-2.6-7.2l-7.2-0.3l-2.1-4.6l1.4-3.4v-6.9l-2.7-2.2
				l1.6-2l-1.2-3.9l4.7-2.2l3.4-6.1l1.7-1.3l-0.3-8l1.7-1.1l-1.6-9.9l1.2-0.6l-1.1-5.5l4.1-4.2l0.2-3.6l1.1-2l7.8-3.9l4.5-5l1.1-2.8
				l-1.8-2.9l-2.6-1.2l-5.6-5.1l-1.4,0.3l-0.3-5.2l-2.8-4.2l0.7-0.8l-2.2-6.3l-3.9-3.2l-2.1-4.9l-2-1.6l-0.2-8.4l-49.5-50.3
				l-9.6-9.6l-6.7-6.4l-27.4-27l-30.5-29.3l-32.6-30.8l-29.1-26.9l-35.7-32.3l-8.5-7.4l-12.4-11.2l-15.6-13.7l-4.8-4.1v-4.2
				l-0.2-2.8v-20.8l0.2-17.3l0.2-12.5v-53.3l-0.2-25.2l0.2-27.1l-0.2-23.5h-43l-27.7-0.2L1690.2,1669z M1806.2,2163.4l0.4,0
				l-0.1,0.3h-0.3l0.3,0.2l0.4-0.1l1.4,1v0.3h0.3l0.3,0.3v3v0.1l0.4,0.1l0.3,0.3l0.6,0.3h0.1l0.5,0.1l0.5,0.3v0.2l0.7-0.3l0.5,0.1
				l0.2,0.2h0.1l0.9-0.1l0.5,0.1h0.1l0.3-0.3h0.4l0.8,0.1l0.3,0.1l0.4-0.2v-0.2l0.3-0.2h0.1l2-1.2l3.9-0.4l0.3-0.1h0.7l0.5-0.7v-0.2
				l0.3-0.3v-0.2l0.3-0.4l0.5-0.1l0.4-0.5l-3.4-0.9h-0.2l-0.5,0.9l0.1,0.2l-0.4,0.6l-0.3,0.3l-0.9,0.2l-0.3-0.2h-0.4v-0.1h-0.4
				l-0.4,0.1l-0.2-0.2h-0.6l-3.1-2h-0.2l-0.1-0.2l-0.2-0.1l-0.5,0.2h-0.4l-1.4,0.2h-0.6l-0.1-0.2l-4.5-1.4L1806.2,2163.4z
				 M1784.5,2163.3l-0.3,0.4l-0.9,0.7l-0.6,0.1l-0.3-0.1l-1.4,0.8l-0.1,0.1h-0.2l-0.3,0.2l1.3,0.3l0.3-0.3h0.3l0.8,0.4l0.4,0.1
				l0.4,0.4l0.4,0.2h0.5l0.1-0.2h0.9h0.3l0.9-0.1v-0.1l-1.4-1.5l-0.5,0.1l-0.6-0.2v-0.3l0.3-0.2l-0.3-0.7v-0.1L1784.5,2163.3z
				 M1799.4,2165.5l-0.1,0.3h-0.2l-0.2,0.3l-0.8,0.3h-1.3l-0.3-0.2h-0.3l-1.3,0.3l-0.7,0.6l-0.5,0.1l-0.3-0.1l-0.6,0.2h-0.6
				l-0.3-0.2l-1.4,0.3l0.2,0.3h0.2v0.2l0.4,0.1l0.4,0.2l0.1,0.5l0.5,0.4l0.4,1v0.3l0.4,0.3l0.5,1.2l2.8,2l0.7-0.3l0.1-0.2l0.3-0.2
				h0.4h0.4l0.4-0.2h0.2l1.1-0.4l0.3-0.4l0.5-0.2l0.4-0.4l1-0.4h1.4v-0.6l-0.1-0.2l-0.1-0.8v-0.7l-0.3-0.1l-0.9,0.3l-0.5-0.1v-0.2
				l-0.5-0.2l-0.8-0.5l-0.3-0.3l-0.1-0.8v-0.5l0.1-0.3v-0.4v-0.3L1799.4,2165.5z M1790.5,2167.5L1790.5,2167.5L1790.5,2167.5
				L1790.5,2167.5z M1873.1,2203l0.1-0.1h0.8l0.2,0.3l0.5-0.1l0.3,0.3h0.1l0.1-0.3l0.6,0.5l0.5,0.2l0.1,0.4l-0.1,0.2l0.3,0.8v0.4
				l0.3,0.4l-0.3,0.2v0.3l-0.2,0.2l0.2,0.2l-0.4,0.6v0.3l1.4,2.1l4.1,0.1l0.2,0.1l0.8,0.4l0.2,0.2l1.2,0.7l0.7-2.2l-0.7-0.8
				l-0.3-0.2l-0.1-0.4l-0.9-1l-0.6-0.9h-0.2v-0.4l0.1-0.3v-0.4l-0.3-0.1h-0.3v-0.2l-3.1-1l-1.7-1.2l-0.5,0.3h-0.3v-0.4l-0.1-0.3
				l-0.4-0.1l-0.6-0.4l-0.1-0.3l-0.3-0.1l-0.2-0.3l-1.7-0.1h-0.8l-0.9-0.3L1873.1,2203z M1825.1,2212.2l-0.1,0.2h-0.6v0.2l-0.5,0.4
				l-0.7-0.5l1.2,2.6l5.5,1l-1.3-2.3l-1.2-0.5h-0.4l-0.3-0.4l-0.8-0.5l-0.3-0.2l-0.3-0.1H1825.1z M1870.6,2228.2l0.4,0.9h0.1
				l0.4,0.3l0.4,1.4l0.1,0.2v0.8l0.4,0.6l0.4,0.4l0.2,0.4l0.2,0.3v0.8l0.2,0.2v0.4v0.2v0.2h0.1v0.3l0.3,0.5h0.3l0.3,0.7l0.3,0.5
				l0.6,0.5v0.6l0.3,0.4l0.1,0.4l0.3,0.4h0.2v0.2l0.8,0.4l0.1,0.3l0.4,0.2l0.5,0.6l0.1,0.1h0.2l0.3,0.3l0.2,0.1v0.3l0.5,0.3h0.1
				l0.1-0.1l0.6-0.2l0.1-0.5l0.7-0.3l0.7,0.3h0.5l0.2,0.1l0.5-0.1l-0.3-0.3l-6.4-6.1l-0.1-0.2l-0.3-0.4l-0.9-1.3v-0.3l-0.3-0.4
				l-0.5-0.5l-0.1-0.3l-0.3-0.2l-0.3-0.5l-0.1-0.8l-0.3-0.2h-0.2l-0.3-0.8v-0.3l-0.3-0.4l-1.7-0.1L1870.6,2228.2z"/>
		</g>
	</g>
</g>
</svg>
